<svg width="103" height="124" viewBox="0 0 103 124" fill="none" xmlns="http://www.w3.org/2000/svg">
<path d="M72.7424 51.5658C73.9754 51.7199 75.3624 51.874 76.5953 51.874C81.527 51.874 86.4587 50.487 90.6198 47.7129C96.4762 44.0141 100.483 38.1578 101.87 31.3767C104.798 17.3522 95.8597 3.63593 81.8352 0.553628C75.0542 -0.83341 68.119 0.399512 62.2626 4.09828C56.8686 7.64293 53.0157 13.037 51.3204 19.2016H1.54115C0.616461 19.2016 0 19.818 0 20.7427V33.8425C0 54.6481 16.6445 71.7549 37.45 72.3714V120.918H15.1033V124H62.8791V120.918H40.5323V72.3714C54.5568 71.7549 66.7319 63.4327 72.7424 51.5658ZM64.2661 6.71824C69.3519 3.3277 75.5165 2.2489 81.527 3.48182C93.8562 6.10178 101.716 18.2769 99.0962 30.6061C97.8632 36.6166 94.3186 41.7024 89.2328 45.093C84.7634 48.0211 79.5235 49.2541 74.2836 48.6376C76.133 44.1683 77.2118 39.0825 77.2118 33.9967V20.8968C77.2118 19.9722 76.5953 19.3557 75.6706 19.3557H54.8651C56.4062 14.1158 59.6426 9.64643 64.2661 6.71824ZM3.08231 22.2839H73.9754V33.8425C73.9754 36.3084 73.6671 38.7742 73.2048 41.086H3.85288C3.39054 38.7742 3.08231 36.3084 3.08231 33.6884V22.2839ZM4.62346 44.3224H72.4342C67.9649 58.8092 54.4027 69.4432 38.5288 69.4432C22.655 69.4432 9.0928 58.8092 4.62346 44.3224Z" fill="#707070"/>
</svg>
