<svg width="25" height="22" viewBox="0 0 25 22" fill="none" xmlns="http://www.w3.org/2000/svg">
<path d="M12.9552 20.9413L12.9552 20.9413L12.9455 20.9446C12.8721 20.9702 12.7107 21 12.5 21C12.2893 21 12.1279 20.9702 12.0545 20.9446L12.0545 20.9446L12.0448 20.9413C10.3746 20.3775 7.5791 18.8772 5.21481 16.4819C2.86224 14.0986 1 10.8982 1 6.90899C1 3.64814 3.6588 1 6.95 1C8.8983 1 10.6194 1.92977 11.7004 3.3691L12.5013 4.43546L13.3006 3.3678C13.8489 2.63533 14.5638 2.03901 15.3889 1.62745C16.2139 1.21593 17.1254 1.00087 18.0505 1C21.3415 1.00024 24 3.6483 24 6.90899C24 10.8982 22.1378 14.0986 19.7852 16.4819C17.4209 18.8772 14.6254 20.3775 12.9552 20.9413Z" stroke="#E2275F" stroke-width="2"/>
</svg>
