<svg width="32" height="32" viewBox="0 0 32 32" fill="none" xmlns="http://www.w3.org/2000/svg">
<path d="M15.2083 30.25C17.1836 30.25 19.1395 29.861 20.9645 29.105C22.7894 28.3491 24.4476 27.2412 25.8444 25.8444C27.2411 24.4477 28.3491 22.7895 29.105 20.9646C29.8609 19.1396 30.25 17.1837 30.25 15.2084C30.25 13.2331 29.8609 11.2771 29.105 9.45216C28.3491 7.62722 27.2411 5.96904 25.8444 4.57229C24.4476 3.17554 22.7894 2.06758 20.9645 1.31167C19.1395 0.555751 17.1836 0.166687 15.2083 0.166687C11.219 0.166687 7.39309 1.75143 4.57223 4.57229C1.75137 7.39315 0.166626 11.2191 0.166626 15.2084C0.166626 19.1977 1.75137 23.0236 4.57223 25.8444C7.39309 28.6653 11.219 30.25 15.2083 30.25ZM30.725 31.8318C30.44 31.8318 30.155 31.7209 29.9491 31.5151L27.0041 28.5701C26.7985 28.361 26.6833 28.0796 26.6833 27.7864C26.6833 27.4931 26.7985 27.2117 27.0041 27.0026C27.4316 26.5751 28.1283 26.5751 28.5716 27.0026L31.5166 29.9476C31.9441 30.3751 31.9441 31.0718 31.5166 31.5151C31.295 31.7209 31.01 31.8318 30.725 31.8318Z" fill="white"/>
</svg>
