<svg width="44" height="36" viewBox="0 0 44 36" fill="none" xmlns="http://www.w3.org/2000/svg">
<path fill-rule="evenodd" clip-rule="evenodd" d="M34.7766 0.00019202C34.192 -0.00523203 33.5963 0.104156 33.024 0.341003L23.4778 4.29605C21.1888 5.24435 20.0929 7.88768 21.0415 10.1778L24.9947 19.721C25.9433 22.0111 28.5872 23.1071 30.8761 22.159L40.4224 18.204C42.7113 17.2557 43.8073 14.6123 42.8587 12.3222L38.9055 2.77906C38.194 1.06143 36.5301 0.0155432 34.7766 0.00019202ZM34.773 1.79312C35.8261 1.79583 36.8088 2.42049 37.2428 3.46824L41.1942 13.0114C41.7731 14.4084 41.13 15.9609 39.7336 16.5391L30.1873 20.4942C28.7909 21.0727 27.2364 20.4288 26.6575 19.0318L22.7061 9.4886C22.1275 8.09164 22.7706 6.53917 24.167 5.96092L33.7132 2.00564C34.0625 1.8613 34.4223 1.7923 34.7733 1.7932L34.773 1.79312ZM27.45 8.10005C27.092 8.10005 26.7488 8.24229 26.4953 8.4954C26.2422 8.74852 26.1 9.09175 26.1 9.45003C26.1 9.80801 26.2422 10.1512 26.4953 10.4047C26.7488 10.6578 27.092 10.8 27.45 10.8C27.8082 10.8 28.1515 10.6578 28.4046 10.4047C28.6577 10.1512 28.7999 9.80801 28.7999 9.45003C28.7999 9.09175 28.6577 8.74852 28.4046 8.4954C28.1515 8.24229 27.8082 8.10005 27.45 8.10005ZM31.9501 9.89992C31.5918 9.89992 31.2486 10.0422 30.9955 10.2953C30.7423 10.5484 30.6001 10.8919 30.6001 11.2499C30.6001 11.6079 30.7423 11.9514 30.9955 12.2045C31.2486 12.4576 31.5918 12.5999 31.9501 12.5999C32.3081 12.5999 32.6513 12.4576 32.9047 12.2045C33.1578 11.9514 33.3001 11.6079 33.3001 11.2499C33.3001 10.8919 33.1578 10.5484 32.9047 10.2953C32.6513 10.0422 32.3081 9.89992 31.9501 9.89992ZM36.4499 11.6998C36.0919 11.6998 35.7484 11.842 35.4953 12.0951C35.2422 12.3486 35.0999 12.6918 35.0999 13.0498C35.0999 13.408 35.2422 13.7513 35.4953 14.0044C35.7484 14.2575 36.0919 14.3997 36.4499 14.3997C36.8079 14.3997 37.1514 14.2575 37.4045 14.0044C37.6577 13.7513 37.7999 13.408 37.7999 13.0498C37.7999 12.6918 37.6577 12.3486 37.4045 12.0951C37.1514 11.842 36.8079 11.6998 36.4499 11.6998ZM8.42362 13.5C6.67019 13.5153 5.00617 14.5613 4.29477 16.2788L0.341577 25.822C-0.607033 28.1122 0.488933 30.7554 2.77786 31.7037L12.3241 35.6588C14.6134 36.6068 17.2572 35.5108 18.2059 33.2207L22.1591 23.6776C23.1077 21.3874 22.0117 18.7441 19.7228 17.7958L10.1765 13.8408C9.60427 13.6039 9.00851 13.4948 8.42393 13.5H8.42362ZM8.42724 15.2929C8.77829 15.292 9.13808 15.361 9.48701 15.5056L19.0333 19.4607C20.4297 20.0389 21.0727 21.5914 20.4942 22.9884L16.5424 32.5315C15.9639 33.9285 14.4093 34.5725 13.0129 33.9939L3.46665 30.0389C2.07023 29.4606 1.42718 27.9081 2.00605 26.5112L5.95747 16.968C6.39139 15.9203 7.37402 15.2953 8.42724 15.2929ZM9.45029 18.8999C9.0923 18.8999 8.74878 19.0421 8.49566 19.2952C8.24254 19.5483 8.10031 19.8916 8.10031 20.2498C8.10031 20.6078 8.24254 20.951 8.49566 21.2045C8.74878 21.4576 9.0923 21.5998 9.45029 21.5998C9.80827 21.5998 10.1518 21.4576 10.4049 21.2045C10.658 20.951 10.8003 20.6078 10.8003 20.2498C10.8003 19.8916 10.658 19.5483 10.4049 19.2952C10.1518 19.0421 9.80827 18.8999 9.45029 18.8999ZM15.7503 21.5998C15.392 21.5998 15.0488 21.7421 14.7957 21.9952C14.5425 22.2483 14.4003 22.5915 14.4003 22.9498C14.4003 23.3078 14.5425 23.651 14.7957 23.9044C15.0488 24.1575 15.392 24.2998 15.7503 24.2998C16.1083 24.2998 16.4515 24.1575 16.7049 23.9044C16.958 23.651 17.1003 23.3078 17.1003 22.9498C17.1003 22.5915 16.958 22.2483 16.7049 21.9952C16.4515 21.7421 16.1083 21.5998 15.7503 21.5998ZM11.2502 23.3997C10.8922 23.3997 10.549 23.5419 10.2955 23.795C10.0424 24.0482 9.90018 24.3917 9.90018 24.7497C9.90018 25.1076 10.0424 25.4512 10.2955 25.7043C10.549 25.9574 10.8922 26.0996 11.2502 26.0996C11.6084 26.0996 11.9517 25.9574 12.2048 25.7043C12.4579 25.4512 12.6001 25.1076 12.6001 24.7497C12.6001 24.3917 12.4579 24.0482 12.2048 23.795C11.9517 23.5419 11.6084 23.3997 11.2502 23.3997ZM6.75033 25.1996C6.39235 25.1996 6.04882 25.3418 5.79571 25.5949C5.54259 25.8483 5.40035 26.1915 5.40035 26.5495C5.40035 26.9078 5.54259 27.251 5.79571 27.5042C6.04882 27.7573 6.39235 27.8995 6.75033 27.8995C7.10831 27.8995 7.45184 27.7573 7.70496 27.5042C7.95808 27.251 8.10031 26.9078 8.10031 26.5495C8.10031 26.1915 7.95808 25.8483 7.70496 25.5949C7.45184 25.3418 7.10831 25.1996 6.75033 25.1996ZM13.0503 27.8995C12.692 27.8995 12.3488 28.0417 12.0957 28.2949C11.8426 28.5483 11.7003 28.8915 11.7003 29.2495C11.7003 29.6078 11.8426 29.951 12.0957 30.2041C12.3488 30.4572 12.692 30.5995 13.0503 30.5995C13.4083 30.5995 13.7515 30.4572 14.005 30.2041C14.2581 29.951 14.4003 29.6078 14.4003 29.2495C14.4003 28.8915 14.2581 28.5483 14.005 28.2949C13.7515 28.0417 13.4083 27.8995 13.0503 27.8995Z" fill="white"/>
</svg>
